<svg width="18" height="14" viewBox="0 0 18 14" fill="none" xmlns="http://www.w3.org/2000/svg">
<path d="M17.6748 1.9326L16.0955 0.329921C15.879 0.110001 15.6156 0 15.306 0C14.9962 0 14.7328 0.110001 14.5162 0.329921L6.89806 8.0724L3.48385 4.59591C3.26705 4.3759 3.00384 4.26603 2.69427 4.26603C2.38449 4.26603 2.12128 4.3759 1.90448 4.59591L0.325155 6.19862C0.108358 6.41858 0 6.68576 0 7.00008C0 7.31415 0.108358 7.58158 0.325155 7.8015L4.52895 12.0674L6.1084 13.67C6.32507 13.8901 6.58836 14 6.89806 14C7.20764 14 7.47093 13.8898 7.68772 13.67L9.26713 12.0674L17.6748 3.53539C17.8914 3.31539 18 3.04825 18 2.73393C18.0002 2.41978 17.8914 2.1526 17.6748 1.9326Z" fill="#FAFAFA"/>
</svg>
